<?xml version="1.0" encoding="UTF-8" standalone="no"?>
<!DOCTYPE svg PUBLIC "-//W3C//DTD SVG 1.1//EN" "http://www.w3.org/Graphics/SVG/1.1/DTD/svg11.dtd">
<svg width="100%" height="100%" viewBox="0 0 631 237" version="1.1" xmlns="http://www.w3.org/2000/svg" xmlns:xlink="http://www.w3.org/1999/xlink" xml:space="preserve" xmlns:serif="http://www.serif.com/" style="fill-rule:evenodd;clip-rule:evenodd;stroke-linecap:round;stroke-linejoin:round;stroke-miterlimit:2;">
    <rect id="searx-light-theme-accented" x="0" y="0" width="631" height="237" style="fill:none;"/>
    <g id="searx">
        <g>
            <path d="M7,165.246c1.227,21.865 21.864,36.701 51.538,36.701c30.342,0 51.76,-15.84 51.76,-38.932c0,-15.84 -8.589,-25.657 -28.557,-32.35l-18.63,-6.359c-9.928,-3.346 -14.836,-7.474 -14.836,-13.721c-0,-8.478 9.147,-14.501 21.752,-14.501c12.383,-0 21.196,5.466 23.092,14.167l25.88,-0c-2.231,-21.195 -20.525,-35.251 -48.748,-35.251c-28.67,0 -48.861,15.283 -48.861,38.374c0,16.064 9.371,26.104 28.558,32.685l18.964,6.359c10.04,3.235 13.498,7.585 13.498,13.498c-0,8.924 -9.594,15.059 -23.538,15.059c-13.275,0 -22.534,-6.581 -24.765,-15.729l-27.107,0Z" style="fill:none;fill-rule:nonzero;stroke:url(#_Radial1);stroke-width:4.44px;"/>
            <path d="M7,165.246c1.227,21.865 21.864,36.701 51.538,36.701c30.342,0 51.76,-15.84 51.76,-38.932c0,-15.84 -8.589,-25.657 -28.557,-32.35l-18.63,-6.359c-9.928,-3.346 -14.836,-7.474 -14.836,-13.721c-0,-8.478 9.147,-14.501 21.752,-14.501c12.383,-0 21.196,5.466 23.092,14.167l25.88,-0c-2.231,-21.195 -20.525,-35.251 -48.748,-35.251c-28.67,0 -48.861,15.283 -48.861,38.374c0,16.064 9.371,26.104 28.558,32.685l18.964,6.359c10.04,3.235 13.498,7.585 13.498,13.498c-0,8.924 -9.594,15.059 -23.538,15.059c-13.275,0 -22.534,-6.581 -24.765,-15.729l-27.107,0Z" style="fill-opacity:0.8;fill-rule:nonzero;"/>
            <path d="M7,165.246c1.227,21.865 21.864,36.701 51.538,36.701c30.342,0 51.76,-15.84 51.76,-38.932c0,-15.84 -8.589,-25.657 -28.557,-32.35l-18.63,-6.359c-9.928,-3.346 -14.836,-7.474 -14.836,-13.721c-0,-8.478 9.147,-14.501 21.752,-14.501c12.383,-0 21.196,5.466 23.092,14.167l25.88,-0c-2.231,-21.195 -20.525,-35.251 -48.748,-35.251c-28.67,0 -48.861,15.283 -48.861,38.374c0,16.064 9.371,26.104 28.558,32.685l18.964,6.359c10.04,3.235 13.498,7.585 13.498,13.498c-0,8.924 -9.594,15.059 -23.538,15.059c-13.275,0 -22.534,-6.581 -24.765,-15.729l-27.107,0Z" style="fill:none;fill-rule:nonzero;stroke:url(#_Radial2);stroke-width:4.44px;"/>
            <path d="M7,165.246c1.227,21.865 21.864,36.701 51.538,36.701c30.342,0 51.76,-15.84 51.76,-38.932c0,-15.84 -8.589,-25.657 -28.557,-32.35l-18.63,-6.359c-9.928,-3.346 -14.836,-7.474 -14.836,-13.721c-0,-8.478 9.147,-14.501 21.752,-14.501c12.383,-0 21.196,5.466 23.092,14.167l25.88,-0c-2.231,-21.195 -20.525,-35.251 -48.748,-35.251c-28.67,0 -48.861,15.283 -48.861,38.374c0,16.064 9.371,26.104 28.558,32.685l18.964,6.359c10.04,3.235 13.498,7.585 13.498,13.498c-0,8.924 -9.594,15.059 -23.538,15.059c-13.275,0 -22.534,-6.581 -24.765,-15.729l-27.107,0Z" style="fill-opacity:0.8;fill-rule:nonzero;"/>
            <path d="M189.835,201.947c29.45,0 50.199,-14.948 55.554,-36.143l-27.331,0c-4.127,8.367 -12.828,13.61 -26.438,13.61c-14.167,-0 -27.442,-9.148 -27.442,-30.231c0,-1.339 0.112,-3.012 0.112,-4.351l86.23,0c0.893,-5.354 1.785,-14.502 1.785,-19.298c-0.111,-31.458 -21.976,-50.534 -49.752,-50.534c-38.375,0 -65.147,30.231 -65.147,75.075c-0,32.908 22.422,51.872 52.429,51.872Zm-22.31,-75.856c4.685,-17.402 17.291,-29.003 33.577,-29.003c15.618,-0 24.43,10.932 24.43,24.541c0,1.562 -0.111,3.793 -0.334,4.462l-57.673,0Z" style="fill:none;fill-rule:nonzero;stroke:url(#_Radial3);stroke-width:4.44px;"/>
            <path d="M189.835,201.947c29.45,0 50.199,-14.948 55.554,-36.143l-27.331,0c-4.127,8.367 -12.828,13.61 -26.438,13.61c-14.167,-0 -27.442,-9.148 -27.442,-30.231c0,-1.339 0.112,-3.012 0.112,-4.351l86.23,0c0.893,-5.354 1.785,-14.502 1.785,-19.298c-0.111,-31.458 -21.976,-50.534 -49.752,-50.534c-38.375,0 -65.147,30.231 -65.147,75.075c-0,32.908 22.422,51.872 52.429,51.872Zm-22.31,-75.856c4.685,-17.402 17.291,-29.003 33.577,-29.003c15.618,-0 24.43,10.932 24.43,24.541c0,1.562 -0.111,3.793 -0.334,4.462l-57.673,0Z" style="fill-opacity:0.8;fill-rule:nonzero;"/>
            <path d="M189.835,201.947c29.45,0 50.199,-14.948 55.554,-36.143l-27.331,0c-4.127,8.367 -12.828,13.61 -26.438,13.61c-14.167,-0 -27.442,-9.148 -27.442,-30.231c0,-1.339 0.112,-3.012 0.112,-4.351l86.23,0c0.893,-5.354 1.785,-14.502 1.785,-19.298c-0.111,-31.458 -21.976,-50.534 -49.752,-50.534c-38.375,0 -65.147,30.231 -65.147,75.075c-0,32.908 22.422,51.872 52.429,51.872Zm-22.31,-75.856c4.685,-17.402 17.291,-29.003 33.577,-29.003c15.618,-0 24.43,10.932 24.43,24.541c0,1.562 -0.111,3.793 -0.334,4.462l-57.673,0Z" style="fill:none;fill-rule:nonzero;stroke:url(#_Radial4);stroke-width:4.44px;"/>
            <path d="M189.835,201.947c29.45,0 50.199,-14.948 55.554,-36.143l-27.331,0c-4.127,8.367 -12.828,13.61 -26.438,13.61c-14.167,-0 -27.442,-9.148 -27.442,-30.231c0,-1.339 0.112,-3.012 0.112,-4.351l86.23,0c0.893,-5.354 1.785,-14.502 1.785,-19.298c-0.111,-31.458 -21.976,-50.534 -49.752,-50.534c-38.375,0 -65.147,30.231 -65.147,75.075c-0,32.908 22.422,51.872 52.429,51.872Zm-22.31,-75.856c4.685,-17.402 17.291,-29.003 33.577,-29.003c15.618,-0 24.43,10.932 24.43,24.541c0,1.562 -0.111,3.793 -0.334,4.462l-57.673,0Z" style="fill-opacity:0.8;fill-rule:nonzero;"/>
            <path d="M315.779,179.86c-11.825,-0 -20.191,-6.47 -20.191,-15.618c-0,-10.597 9.928,-17.625 26.438,-18.294l27.888,-1.227l-2.566,11.824c-3.012,13.498 -16.175,23.315 -31.569,23.315Zm-10.932,21.641c14.502,0 27.888,-6.693 35.362,-17.402l1.896,-0l-3.235,15.394l26.885,0l16.844,-79.314c0.558,-3.012 1.004,-6.693 1.004,-9.928c0,-21.195 -19.075,-35.251 -47.745,-35.251c-26.772,0 -47.075,13.498 -52.318,35.028l26.884,-0c3.458,-8.032 11.713,-12.494 23.315,-12.494c13.833,-0 22.311,6.024 22.311,15.84c-0,1.45 -0.112,2.678 -0.558,4.909l-1.674,7.808l-31.904,1.227c-34.135,1.227 -53.768,16.176 -53.768,40.717c-0,18.964 15.84,33.466 36.701,33.466Z" style="fill:none;fill-rule:nonzero;stroke:url(#_Radial5);stroke-width:4.44px;"/>
            <path d="M315.779,179.86c-11.825,-0 -20.191,-6.47 -20.191,-15.618c-0,-10.597 9.928,-17.625 26.438,-18.294l27.888,-1.227l-2.566,11.824c-3.012,13.498 -16.175,23.315 -31.569,23.315Zm-10.932,21.641c14.502,0 27.888,-6.693 35.362,-17.402l1.896,-0l-3.235,15.394l26.885,0l16.844,-79.314c0.558,-3.012 1.004,-6.693 1.004,-9.928c0,-21.195 -19.075,-35.251 -47.745,-35.251c-26.772,0 -47.075,13.498 -52.318,35.028l26.884,-0c3.458,-8.032 11.713,-12.494 23.315,-12.494c13.833,-0 22.311,6.024 22.311,15.84c-0,1.45 -0.112,2.678 -0.558,4.909l-1.674,7.808l-31.904,1.227c-34.135,1.227 -53.768,16.176 -53.768,40.717c-0,18.964 15.84,33.466 36.701,33.466Z" style="fill-opacity:0.8;fill-rule:nonzero;"/>
            <path d="M315.779,179.86c-11.825,-0 -20.191,-6.47 -20.191,-15.618c-0,-10.597 9.928,-17.625 26.438,-18.294l27.888,-1.227l-2.566,11.824c-3.012,13.498 -16.175,23.315 -31.569,23.315Zm-10.932,21.641c14.502,0 27.888,-6.693 35.362,-17.402l1.896,-0l-3.235,15.394l26.885,0l16.844,-79.314c0.558,-3.012 1.004,-6.693 1.004,-9.928c0,-21.195 -19.075,-35.251 -47.745,-35.251c-26.772,0 -47.075,13.498 -52.318,35.028l26.884,-0c3.458,-8.032 11.713,-12.494 23.315,-12.494c13.833,-0 22.311,6.024 22.311,15.84c-0,1.45 -0.112,2.678 -0.558,4.909l-1.674,7.808l-31.904,1.227c-34.135,1.227 -53.768,16.176 -53.768,40.717c-0,18.964 15.84,33.466 36.701,33.466Z" style="fill:none;fill-rule:nonzero;stroke:url(#_Radial6);stroke-width:4.44px;"/>
            <path d="M315.779,179.86c-11.825,-0 -20.191,-6.47 -20.191,-15.618c-0,-10.597 9.928,-17.625 26.438,-18.294l27.888,-1.227l-2.566,11.824c-3.012,13.498 -16.175,23.315 -31.569,23.315Zm-10.932,21.641c14.502,0 27.888,-6.693 35.362,-17.402l1.896,-0l-3.235,15.394l26.885,0l16.844,-79.314c0.558,-3.012 1.004,-6.693 1.004,-9.928c0,-21.195 -19.075,-35.251 -47.745,-35.251c-26.772,0 -47.075,13.498 -52.318,35.028l26.884,-0c3.458,-8.032 11.713,-12.494 23.315,-12.494c13.833,-0 22.311,6.024 22.311,15.84c-0,1.45 -0.112,2.678 -0.558,4.909l-1.674,7.808l-31.904,1.227c-34.135,1.227 -53.768,16.176 -53.768,40.717c-0,18.964 15.84,33.466 36.701,33.466Z" style="fill-opacity:0.8;fill-rule:nonzero;"/>
            <g>
                <path d="M397.101,199.493l27.888,0l14.725,-69.051c4.351,-19.968 14.725,-29.673 32.128,-29.673c5.131,-0 12.94,1.115 17.402,2.677l5.578,-25.769c-3.235,-1.338 -9.259,-2.231 -15.172,-2.231c-13.498,0 -24.095,6.247 -31.235,18.295l-1.784,-0l3.346,-16.287l-26.884,0l-25.992,122.039Z" style="fill:none;fill-rule:nonzero;stroke:url(#_Radial7);stroke-width:4.44px;"/>
                <path d="M397.101,199.493l27.888,0l14.725,-69.051c4.351,-19.968 14.725,-29.673 32.128,-29.673c5.131,-0 12.94,1.115 17.402,2.677l5.578,-25.769c-3.235,-1.338 -9.259,-2.231 -15.172,-2.231c-13.498,0 -24.095,6.247 -31.235,18.295l-1.784,-0l3.346,-16.287l-26.884,0l-25.992,122.039Z" style="fill-opacity:0.8;fill-rule:nonzero;"/>
            </g>
            <path d="M397.101,199.493l27.888,0l14.725,-69.051c4.351,-19.968 14.725,-29.673 32.128,-29.673c5.131,-0 12.94,1.115 17.402,2.677l5.578,-25.769c-3.235,-1.338 -9.259,-2.231 -15.172,-2.231c-13.498,0 -24.095,6.247 -31.235,18.295l-1.784,-0l3.346,-16.287l-26.884,0l-25.992,122.039Z" style="fill:none;fill-rule:nonzero;stroke:url(#_Radial8);stroke-width:4.44px;"/>
            <path d="M397.101,199.493l27.888,0l14.725,-69.051c4.351,-19.968 14.725,-29.673 32.128,-29.673c5.131,-0 12.94,1.115 17.402,2.677l5.578,-25.769c-3.235,-1.338 -9.259,-2.231 -15.172,-2.231c-13.498,0 -24.095,6.247 -31.235,18.295l-1.784,-0l3.346,-16.287l-26.884,0l-25.992,122.039Z" style="fill-opacity:0.8;fill-rule:nonzero;"/>
            <g opacity="0.25">
                <path d="M562.179,145.999l0.092,61.474l12.626,-12.144l10.863,20.1l13.418,-7.052l-9.656,-18.401l16.617,-0.037l-43.96,-43.94Z" style="fill:#f20d5e;"/>
                <path d="M562.179,145.999l0.092,61.474l12.626,-12.144l10.863,20.1l13.418,-7.052l-9.656,-18.401l16.617,-0.037l-43.96,-43.94Z" style="fill:#f20d5e;"/>
            </g>
            <path d="M565.775,155.14l30.637,30.797l-13.507,0.027l10.279,19.878l-6.53,3.597l-11.356,-20.704l-9.584,9.155l0.061,-42.75Z" style="fill:#f20d5e;"/>
            <path d="M551.955,157.479l71.601,-80.025l-31.145,0l-32.697,41.454l-1.885,-0l-16.293,-41.454l-30.037,0l26.712,60.185l-52.205,61.072l30.813,-0l35.136,-41.232Z" style="fill:none;fill-rule:nonzero;stroke:#f20d5e;stroke-opacity:0.25;stroke-width:4.44px;stroke-linecap:butt;stroke-miterlimit:1.41421;"/>
            <path d="M551.955,157.479l71.601,-80.025l-31.145,0l-32.697,41.454l-1.885,-0l-16.293,-41.454l-30.037,0l26.712,60.185l-52.205,61.072l30.813,-0l35.136,-41.232Z" style="fill:#f20d5e;fill-rule:nonzero;"/>
        </g>
    </g>
    <defs>
        <radialGradient id="_Radial1" cx="0" cy="0" r="1" gradientUnits="userSpaceOnUse" gradientTransform="matrix(674,82.09,0,63.0667,300,116.621)"><stop offset="0" style="stop-color:#707070;stop-opacity:1"/><stop offset="0.48" style="stop-color:#838383;stop-opacity:1"/><stop offset="0.63" style="stop-color:#b6b6b6;stop-opacity:1"/><stop offset="0.75" style="stop-color:#f2f2f2;stop-opacity:1"/><stop offset="0.8" style="stop-color:#bababa;stop-opacity:1"/><stop offset="0.85" style="stop-color:#838383;stop-opacity:1"/><stop offset="1" style="stop-color:#6a6a6a;stop-opacity:1"/></radialGradient>
        <radialGradient id="_Radial2" cx="0" cy="0" r="1" gradientUnits="userSpaceOnUse" gradientTransform="matrix(674,82.09,0,63.0667,300,116.621)"><stop offset="0" style="stop-color:#707070;stop-opacity:1"/><stop offset="0.48" style="stop-color:#838383;stop-opacity:1"/><stop offset="0.63" style="stop-color:#b6b6b6;stop-opacity:1"/><stop offset="0.75" style="stop-color:#f2f2f2;stop-opacity:1"/><stop offset="0.8" style="stop-color:#bababa;stop-opacity:1"/><stop offset="0.85" style="stop-color:#838383;stop-opacity:1"/><stop offset="1" style="stop-color:#6a6a6a;stop-opacity:1"/></radialGradient>
        <radialGradient id="_Radial3" cx="0" cy="0" r="1" gradientUnits="userSpaceOnUse" gradientTransform="matrix(674,82.09,0,63.0667,300,116.621)"><stop offset="0" style="stop-color:#707070;stop-opacity:1"/><stop offset="0.48" style="stop-color:#838383;stop-opacity:1"/><stop offset="0.63" style="stop-color:#b6b6b6;stop-opacity:1"/><stop offset="0.75" style="stop-color:#f2f2f2;stop-opacity:1"/><stop offset="0.8" style="stop-color:#bababa;stop-opacity:1"/><stop offset="0.85" style="stop-color:#838383;stop-opacity:1"/><stop offset="1" style="stop-color:#6a6a6a;stop-opacity:1"/></radialGradient>
        <radialGradient id="_Radial4" cx="0" cy="0" r="1" gradientUnits="userSpaceOnUse" gradientTransform="matrix(674,82.09,0,63.0667,300,116.621)"><stop offset="0" style="stop-color:#707070;stop-opacity:1"/><stop offset="0.48" style="stop-color:#838383;stop-opacity:1"/><stop offset="0.63" style="stop-color:#b6b6b6;stop-opacity:1"/><stop offset="0.75" style="stop-color:#f2f2f2;stop-opacity:1"/><stop offset="0.8" style="stop-color:#bababa;stop-opacity:1"/><stop offset="0.85" style="stop-color:#838383;stop-opacity:1"/><stop offset="1" style="stop-color:#6a6a6a;stop-opacity:1"/></radialGradient>
        <radialGradient id="_Radial5" cx="0" cy="0" r="1" gradientUnits="userSpaceOnUse" gradientTransform="matrix(674,82.09,0,63.0667,300,116.621)"><stop offset="0" style="stop-color:#707070;stop-opacity:1"/><stop offset="0.48" style="stop-color:#838383;stop-opacity:1"/><stop offset="0.63" style="stop-color:#b6b6b6;stop-opacity:1"/><stop offset="0.75" style="stop-color:#f2f2f2;stop-opacity:1"/><stop offset="0.8" style="stop-color:#bababa;stop-opacity:1"/><stop offset="0.85" style="stop-color:#838383;stop-opacity:1"/><stop offset="1" style="stop-color:#6a6a6a;stop-opacity:1"/></radialGradient>
        <radialGradient id="_Radial6" cx="0" cy="0" r="1" gradientUnits="userSpaceOnUse" gradientTransform="matrix(674,82.09,0,63.0667,300,116.621)"><stop offset="0" style="stop-color:#707070;stop-opacity:1"/><stop offset="0.48" style="stop-color:#838383;stop-opacity:1"/><stop offset="0.63" style="stop-color:#b6b6b6;stop-opacity:1"/><stop offset="0.75" style="stop-color:#f2f2f2;stop-opacity:1"/><stop offset="0.8" style="stop-color:#bababa;stop-opacity:1"/><stop offset="0.85" style="stop-color:#838383;stop-opacity:1"/><stop offset="1" style="stop-color:#6a6a6a;stop-opacity:1"/></radialGradient>
        <radialGradient id="_Radial7" cx="0" cy="0" r="1" gradientUnits="userSpaceOnUse" gradientTransform="matrix(674,82.09,0,63.0667,300,116.621)"><stop offset="0" style="stop-color:#707070;stop-opacity:1"/><stop offset="0.48" style="stop-color:#838383;stop-opacity:1"/><stop offset="0.63" style="stop-color:#b6b6b6;stop-opacity:1"/><stop offset="0.75" style="stop-color:#f2f2f2;stop-opacity:1"/><stop offset="0.8" style="stop-color:#bababa;stop-opacity:1"/><stop offset="0.85" style="stop-color:#838383;stop-opacity:1"/><stop offset="1" style="stop-color:#6a6a6a;stop-opacity:1"/></radialGradient>
        <radialGradient id="_Radial8" cx="0" cy="0" r="1" gradientUnits="userSpaceOnUse" gradientTransform="matrix(674,82.09,0,63.0667,300,116.621)"><stop offset="0" style="stop-color:#707070;stop-opacity:1"/><stop offset="0.48" style="stop-color:#838383;stop-opacity:1"/><stop offset="0.63" style="stop-color:#b6b6b6;stop-opacity:1"/><stop offset="0.75" style="stop-color:#f2f2f2;stop-opacity:1"/><stop offset="0.8" style="stop-color:#bababa;stop-opacity:1"/><stop offset="0.85" style="stop-color:#838383;stop-opacity:1"/><stop offset="1" style="stop-color:#6a6a6a;stop-opacity:1"/></radialGradient>
    </defs>
</svg>
